<svg width="59" height="57" viewBox="0 0 59 57" fill="none" xmlns="http://www.w3.org/2000/svg">
<path d="M3 0L3 57" stroke="black" stroke-width="6"/>
<line x1="56" y1="2" x2="56" y2="57" stroke="black" stroke-width="6"/>
<path d="M14.865 53.15C14.085 53.15 13.365 53.015 12.705 52.745C12.045 52.465 11.47 52.075 10.98 51.575C10.5 51.075 10.125 50.485 9.855 49.805C9.585 49.115 9.45 48.365 9.45 47.555C9.45 46.745 9.58 46.005 9.84 45.335C10.11 44.665 10.485 44.085 10.965 43.595C11.455 43.095 12.03 42.715 12.69 42.455C13.35 42.185 14.075 42.05 14.865 42.05C15.755 42.05 16.555 42.225 17.265 42.575C17.985 42.915 18.57 43.4 19.02 44.03C19.48 44.65 19.76 45.38 19.86 46.22H17.61C17.48 45.45 17.165 44.87 16.665 44.48C16.165 44.08 15.57 43.88 14.88 43.88C14.27 43.88 13.73 44.025 13.26 44.315C12.8 44.605 12.44 45.025 12.18 45.575C11.92 46.115 11.79 46.77 11.79 47.54C11.79 48.32 11.92 48.995 12.18 49.565C12.45 50.125 12.82 50.56 13.29 50.87C13.76 51.17 14.3 51.32 14.91 51.32C15.56 51.32 16.135 51.125 16.635 50.735C17.135 50.345 17.46 49.765 17.61 48.995H19.89C19.76 49.835 19.465 50.57 19.005 51.2C18.545 51.82 17.96 52.3 17.25 52.64C16.54 52.98 15.745 53.15 14.865 53.15ZM20.0387 53L23.9087 42.2H25.8887L22.3337 53H20.0387ZM27.9587 53L24.4187 42.2H26.4887L30.3587 53H27.9587ZM22.0787 48.815H28.1387V50.615H22.0787V48.815ZM35.357 53.135C33.957 53.135 32.837 52.825 31.997 52.205C31.157 51.575 30.667 50.69 30.527 49.55H32.747C32.817 50.13 33.097 50.59 33.587 50.93C34.077 51.26 34.702 51.425 35.462 51.425C36.082 51.425 36.557 51.315 36.887 51.095C37.227 50.875 37.397 50.58 37.397 50.21C37.397 49.86 37.297 49.58 37.097 49.37C36.897 49.15 36.552 48.975 36.062 48.845L34.052 48.29C33.022 48 32.267 47.605 31.787 47.105C31.317 46.595 31.082 45.96 31.082 45.2C31.082 44.55 31.247 43.99 31.577 43.52C31.917 43.04 32.392 42.675 33.002 42.425C33.612 42.165 34.327 42.035 35.147 42.035C36.407 42.035 37.412 42.335 38.162 42.935C38.912 43.525 39.337 44.31 39.437 45.29H37.217C37.117 44.76 36.872 44.37 36.482 44.12C36.102 43.87 35.612 43.745 35.012 43.745C34.492 43.745 34.077 43.845 33.767 44.045C33.457 44.245 33.302 44.515 33.302 44.855C33.302 45.115 33.387 45.355 33.557 45.575C33.727 45.785 34.082 45.965 34.622 46.115L36.632 46.67C37.692 46.96 38.452 47.36 38.912 47.87C39.382 48.37 39.617 49.005 39.617 49.775C39.617 50.855 39.242 51.685 38.492 52.265C37.742 52.845 36.697 53.135 35.357 53.135ZM40.7021 53V42.2H43.0121V53H40.7021ZM41.7821 53V51.23H48.7421V53H41.7821ZM41.7821 48.35V46.61H48.2171V48.35H41.7821ZM41.7821 43.97V42.2H48.5621V43.97H41.7821Z" fill="black"/>
<path d="M12.09 24.15C10.92 24.15 9.915 23.92 9.075 23.46C8.235 23 7.585 22.355 7.125 21.525C6.675 20.695 6.45 19.725 6.45 18.615C6.45 17.515 6.68 16.55 7.14 15.72C7.6 14.88 8.235 14.225 9.045 13.755C9.865 13.285 10.815 13.05 11.895 13.05C12.785 13.05 13.58 13.21 14.28 13.53C14.99 13.85 15.56 14.29 15.99 14.85C16.43 15.4 16.69 16.04 16.77 16.77H14.46C14.36 16.18 14.08 15.72 13.62 15.39C13.17 15.05 12.605 14.88 11.925 14.88C11.295 14.88 10.745 15.03 10.275 15.33C9.805 15.62 9.44 16.04 9.18 16.59C8.92 17.14 8.79 17.8 8.79 18.57C8.79 19.37 8.92 20.055 9.18 20.625C9.44 21.185 9.82 21.615 10.32 21.915C10.83 22.205 11.455 22.35 12.195 22.35C12.795 22.35 13.305 22.275 13.725 22.125C14.145 21.975 14.465 21.765 14.685 21.495L16.875 22.365C16.295 22.945 15.62 23.39 14.85 23.7C14.09 24 13.17 24.15 12.09 24.15ZM14.565 22.365V19.395L15.03 19.86H12.18V18.09H16.875V22.365H14.565ZM23.4254 24.15C22.6254 24.15 21.8854 24.015 21.2054 23.745C20.5354 23.475 19.9504 23.095 19.4504 22.605C18.9604 22.105 18.5754 21.515 18.2954 20.835C18.0254 20.145 17.8904 19.385 17.8904 18.555C17.8904 17.455 18.1254 16.495 18.5954 15.675C19.0654 14.845 19.7154 14.2 20.5454 13.74C21.3854 13.28 22.3404 13.05 23.4104 13.05C24.5004 13.05 25.4604 13.28 26.2904 13.74C27.1204 14.2 27.7704 14.845 28.2404 15.675C28.7204 16.505 28.9604 17.47 28.9604 18.57C28.9604 19.39 28.8204 20.145 28.5404 20.835C28.2704 21.515 27.8854 22.105 27.3854 22.605C26.8954 23.095 26.3104 23.475 25.6304 23.745C24.9604 24.015 24.2254 24.15 23.4254 24.15ZM23.4104 22.32C24.0404 22.32 24.5954 22.16 25.0754 21.84C25.5554 21.52 25.9304 21.08 26.2004 20.52C26.4804 19.95 26.6204 19.29 26.6204 18.54C26.6204 17.8 26.4854 17.155 26.2154 16.605C25.9454 16.055 25.5704 15.63 25.0904 15.33C24.6104 15.03 24.0504 14.88 23.4104 14.88C22.7804 14.88 22.2254 15.03 21.7454 15.33C21.2654 15.63 20.8904 16.055 20.6204 16.605C20.3604 17.145 20.2304 17.79 20.2304 18.54C20.2304 19.3 20.3654 19.965 20.6354 20.535C20.9054 21.095 21.2804 21.535 21.7604 21.855C22.2404 22.165 22.7904 22.32 23.4104 22.32ZM35.4664 24.15C34.6664 24.15 33.9264 24.015 33.2464 23.745C32.5764 23.475 31.9914 23.095 31.4914 22.605C31.0014 22.105 30.6164 21.515 30.3364 20.835C30.0664 20.145 29.9314 19.385 29.9314 18.555C29.9314 17.455 30.1664 16.495 30.6364 15.675C31.1064 14.845 31.7564 14.2 32.5864 13.74C33.4264 13.28 34.3814 13.05 35.4514 13.05C36.5414 13.05 37.5014 13.28 38.3314 13.74C39.1614 14.2 39.8114 14.845 40.2814 15.675C40.7614 16.505 41.0014 17.47 41.0014 18.57C41.0014 19.39 40.8614 20.145 40.5814 20.835C40.3114 21.515 39.9264 22.105 39.4264 22.605C38.9364 23.095 38.3514 23.475 37.6714 23.745C37.0014 24.015 36.2664 24.15 35.4664 24.15ZM35.4514 22.32C36.0814 22.32 36.6364 22.16 37.1164 21.84C37.5964 21.52 37.9714 21.08 38.2414 20.52C38.5214 19.95 38.6614 19.29 38.6614 18.54C38.6614 17.8 38.5264 17.155 38.2564 16.605C37.9864 16.055 37.6114 15.63 37.1314 15.33C36.6514 15.03 36.0914 14.88 35.4514 14.88C34.8214 14.88 34.2664 15.03 33.7864 15.33C33.3064 15.63 32.9314 16.055 32.6614 16.605C32.4014 17.145 32.2714 17.79 32.2714 18.54C32.2714 19.3 32.4064 19.965 32.6764 20.535C32.9464 21.095 33.3214 21.535 33.8014 21.855C34.2814 22.165 34.8314 22.32 35.4514 22.32ZM43.6092 24V22.2H46.3392C47.1192 22.2 47.7792 22.045 48.3192 21.735C48.8692 21.415 49.2842 20.98 49.5642 20.43C49.8542 19.88 49.9992 19.25 49.9992 18.54C49.9992 17.84 49.8592 17.225 49.5792 16.695C49.2992 16.165 48.8842 15.75 48.3342 15.45C47.7942 15.15 47.1292 15 46.3392 15H43.6542V13.2H46.3392C47.5492 13.2 48.6042 13.42 49.5042 13.86C50.4042 14.29 51.0992 14.91 51.5892 15.72C52.0892 16.52 52.3392 17.47 52.3392 18.57C52.3392 19.67 52.0892 20.63 51.5892 21.45C51.0892 22.26 50.3892 22.89 49.4892 23.34C48.5992 23.78 47.5542 24 46.3542 24H43.6092ZM42.1992 24V13.2H44.5092V24H42.1992Z" fill="black"/>
<line y1="3" x2="59" y2="3" stroke="black" stroke-width="6"/>
<line y1="34" x2="59" y2="34" stroke="black" stroke-width="6"/>
</svg>
