<svg width="273" height="56" viewBox="0 0 273 56" fill="none" xmlns="http://www.w3.org/2000/svg">
<path d="M0.75 52V41.2H3.06V52H0.75ZM1.83 52V50.23H8.25V52H1.83ZM9.59766 52V41.2H11.9077V52H9.59766ZM10.6777 52V50.23H17.6377V52H10.6777ZM10.6777 47.35V45.61H17.1127V47.35H10.6777ZM10.6777 42.97V41.2H17.4577V42.97H10.6777ZM23.0025 52.135C21.6025 52.135 20.4825 51.825 19.6425 51.205C18.8025 50.575 18.3125 49.69 18.1725 48.55H20.3925C20.4625 49.13 20.7425 49.59 21.2325 49.93C21.7225 50.26 22.3475 50.425 23.1075 50.425C23.7275 50.425 24.2025 50.315 24.5325 50.095C24.8725 49.875 25.0425 49.58 25.0425 49.21C25.0425 48.86 24.9425 48.58 24.7425 48.37C24.5425 48.15 24.1975 47.975 23.7075 47.845L21.6975 47.29C20.6675 47 19.9125 46.605 19.4325 46.105C18.9625 45.595 18.7275 44.96 18.7275 44.2C18.7275 43.55 18.8925 42.99 19.2225 42.52C19.5625 42.04 20.0375 41.675 20.6475 41.425C21.2575 41.165 21.9725 41.035 22.7925 41.035C24.0525 41.035 25.0575 41.335 25.8075 41.935C26.5575 42.525 26.9825 43.31 27.0825 44.29H24.8625C24.7625 43.76 24.5175 43.37 24.1275 43.12C23.7475 42.87 23.2575 42.745 22.6575 42.745C22.1375 42.745 21.7225 42.845 21.4125 43.045C21.1025 43.245 20.9475 43.515 20.9475 43.855C20.9475 44.115 21.0325 44.355 21.2025 44.575C21.3725 44.785 21.7275 44.965 22.2675 45.115L24.2775 45.67C25.3375 45.96 26.0975 46.36 26.5575 46.87C27.0275 47.37 27.2625 48.005 27.2625 48.775C27.2625 49.855 26.8875 50.685 26.1375 51.265C25.3875 51.845 24.3425 52.135 23.0025 52.135ZM32.7877 52.135C31.3877 52.135 30.2677 51.825 29.4277 51.205C28.5877 50.575 28.0977 49.69 27.9577 48.55H30.1777C30.2477 49.13 30.5277 49.59 31.0177 49.93C31.5077 50.26 32.1327 50.425 32.8927 50.425C33.5127 50.425 33.9877 50.315 34.3177 50.095C34.6577 49.875 34.8277 49.58 34.8277 49.21C34.8277 48.86 34.7277 48.58 34.5277 48.37C34.3277 48.15 33.9827 47.975 33.4927 47.845L31.4827 47.29C30.4527 47 29.6977 46.605 29.2177 46.105C28.7477 45.595 28.5127 44.96 28.5127 44.2C28.5127 43.55 28.6777 42.99 29.0077 42.52C29.3477 42.04 29.8227 41.675 30.4327 41.425C31.0427 41.165 31.7577 41.035 32.5777 41.035C33.8377 41.035 34.8427 41.335 35.5927 41.935C36.3427 42.525 36.7677 43.31 36.8677 44.29H34.6477C34.5477 43.76 34.3027 43.37 33.9127 43.12C33.5327 42.87 33.0427 42.745 32.4427 42.745C31.9227 42.745 31.5077 42.845 31.1977 43.045C30.8877 43.245 30.7327 43.515 30.7327 43.855C30.7327 44.115 30.8177 44.355 30.9877 44.575C31.1577 44.785 31.5127 44.965 32.0527 45.115L34.0627 45.67C35.1227 45.96 35.8827 46.36 36.3427 46.87C36.8127 47.37 37.0477 48.005 37.0477 48.775C37.0477 49.855 36.6727 50.685 35.9227 51.265C35.1727 51.845 34.1277 52.135 32.7877 52.135ZM43.7943 52L40.7493 41.2H43.0893L45.6093 51.085H44.8743L47.1243 41.2H49.7493L51.9693 51.085H51.2493L53.7843 41.2H56.0193L52.9743 52H50.3943L48.0993 42.31H48.6993L46.3743 52H43.7943ZM55.233 52L59.103 41.2H61.083L57.528 52H55.233ZM63.153 52L59.613 41.2H61.683L65.553 52H63.153ZM57.273 47.815H63.333V49.615H57.273V47.815ZM70.5513 52.135C69.1513 52.135 68.0313 51.825 67.1913 51.205C66.3513 50.575 65.8613 49.69 65.7213 48.55H67.9413C68.0113 49.13 68.2913 49.59 68.7813 49.93C69.2713 50.26 69.8963 50.425 70.6563 50.425C71.2763 50.425 71.7513 50.315 72.0813 50.095C72.4213 49.875 72.5913 49.58 72.5913 49.21C72.5913 48.86 72.4913 48.58 72.2913 48.37C72.0913 48.15 71.7463 47.975 71.2563 47.845L69.2463 47.29C68.2163 47 67.4613 46.605 66.9813 46.105C66.5113 45.595 66.2763 44.96 66.2763 44.2C66.2763 43.55 66.4413 42.99 66.7713 42.52C67.1113 42.04 67.5863 41.675 68.1963 41.425C68.8063 41.165 69.5213 41.035 70.3413 41.035C71.6013 41.035 72.6063 41.335 73.3563 41.935C74.1063 42.525 74.5313 43.31 74.6313 44.29H72.4113C72.3113 43.76 72.0663 43.37 71.6763 43.12C71.2963 42.87 70.8063 42.745 70.2063 42.745C69.6863 42.745 69.2713 42.845 68.9613 43.045C68.6513 43.245 68.4963 43.515 68.4963 43.855C68.4963 44.115 68.5813 44.355 68.7513 44.575C68.9213 44.785 69.2763 44.965 69.8163 45.115L71.8263 45.67C72.8863 45.96 73.6463 46.36 74.1063 46.87C74.5763 47.37 74.8113 48.005 74.8113 48.775C74.8113 49.855 74.4363 50.685 73.6863 51.265C72.9363 51.845 71.8913 52.135 70.5513 52.135ZM78.7385 52V42.97H75.2135V41.2H84.5735V42.97H81.0485V52H78.7385ZM85.6816 52V41.2H87.9916V52H85.6816ZM86.7616 52V50.23H93.7216V52H86.7616ZM86.7616 47.35V45.61H93.1966V47.35H86.7616ZM86.7616 42.97V41.2H93.5416V42.97H86.7616ZM177.535 52.15C176.365 52.15 175.36 51.92 174.52 51.46C173.68 51 173.03 50.355 172.57 49.525C172.12 48.695 171.895 47.725 171.895 46.615C171.895 45.515 172.125 44.55 172.585 43.72C173.045 42.88 173.68 42.225 174.49 41.755C175.31 41.285 176.26 41.05 177.34 41.05C178.23 41.05 179.025 41.21 179.725 41.53C180.435 41.85 181.005 42.29 181.435 42.85C181.875 43.4 182.135 44.04 182.215 44.77H179.905C179.805 44.18 179.525 43.72 179.065 43.39C178.615 43.05 178.05 42.88 177.37 42.88C176.74 42.88 176.19 43.03 175.72 43.33C175.25 43.62 174.885 44.04 174.625 44.59C174.365 45.14 174.235 45.8 174.235 46.57C174.235 47.37 174.365 48.055 174.625 48.625C174.885 49.185 175.265 49.615 175.765 49.915C176.275 50.205 176.9 50.35 177.64 50.35C178.24 50.35 178.75 50.275 179.17 50.125C179.59 49.975 179.91 49.765 180.13 49.495L182.32 50.365C181.74 50.945 181.065 51.39 180.295 51.7C179.535 52 178.615 52.15 177.535 52.15ZM180.01 50.365V47.395L180.475 47.86H177.625V46.09H182.32V50.365H180.01ZM183.532 52V41.2H188.362C189.142 41.2 189.822 41.335 190.402 41.605C190.982 41.865 191.432 42.235 191.752 42.715C192.072 43.195 192.232 43.755 192.232 44.395C192.232 45.025 192.072 45.58 191.752 46.06C191.432 46.53 190.982 46.9 190.402 47.17C189.822 47.43 189.142 47.56 188.362 47.56H185.362V45.865H188.302C188.852 45.865 189.272 45.74 189.562 45.49C189.862 45.23 190.012 44.87 190.012 44.41C190.012 43.94 189.867 43.585 189.577 43.345C189.287 43.095 188.862 42.97 188.302 42.97H185.842V52H183.532ZM189.622 52L185.287 46.39H187.732L192.742 52H189.622ZM193.611 52V41.2H195.921V52H193.611ZM194.691 52V50.23H201.651V52H194.691ZM194.691 47.35V45.61H201.126V47.35H194.691ZM194.691 42.97V41.2H201.471V42.97H194.691ZM202.523 52L206.393 41.2H208.373L204.818 52H202.523ZM210.443 52L206.903 41.2H208.973L212.843 52H210.443ZM204.563 47.815H210.623V49.615H204.563V47.815ZM215.364 52V42.97H211.839V41.2H221.199V42.97H217.674V52H215.364ZM228.299 52V42.97H224.774V41.2H234.134V42.97H230.609V52H228.299ZM233.124 52L236.994 41.2H238.974L235.419 52H233.124ZM241.044 52L237.504 41.2H239.574L243.444 52H241.044ZM235.164 47.815H241.224V49.615H235.164V47.815ZM248.442 52.135C247.042 52.135 245.922 51.825 245.082 51.205C244.242 50.575 243.752 49.69 243.612 48.55H245.832C245.902 49.13 246.182 49.59 246.672 49.93C247.162 50.26 247.787 50.425 248.547 50.425C249.167 50.425 249.642 50.315 249.972 50.095C250.312 49.875 250.482 49.58 250.482 49.21C250.482 48.86 250.382 48.58 250.182 48.37C249.982 48.15 249.637 47.975 249.147 47.845L247.137 47.29C246.107 47 245.352 46.605 244.872 46.105C244.402 45.595 244.167 44.96 244.167 44.2C244.167 43.55 244.332 42.99 244.662 42.52C245.002 42.04 245.477 41.675 246.087 41.425C246.697 41.165 247.412 41.035 248.232 41.035C249.492 41.035 250.497 41.335 251.247 41.935C251.997 42.525 252.422 43.31 252.522 44.29H250.302C250.202 43.76 249.957 43.37 249.567 43.12C249.187 42.87 248.697 42.745 248.097 42.745C247.577 42.745 247.162 42.845 246.852 43.045C246.542 43.245 246.387 43.515 246.387 43.855C246.387 44.115 246.472 44.355 246.642 44.575C246.812 44.785 247.167 44.965 247.707 45.115L249.717 45.67C250.777 45.96 251.537 46.36 251.997 46.87C252.467 47.37 252.702 48.005 252.702 48.775C252.702 49.855 252.327 50.685 251.577 51.265C250.827 51.845 249.782 52.135 248.442 52.135ZM256.629 52V42.97H253.104V41.2H262.464V42.97H258.939V52H256.629ZM263.572 52V41.2H265.882V52H263.572ZM264.652 52V50.23H271.612V52H264.652ZM264.652 47.35V45.61H271.087V47.35H264.652ZM264.652 42.97V41.2H271.432V42.97H264.652Z" fill="black"/>
<line x1="109" x2="109" y2="55" stroke="black" stroke-width="6"/>
<line x1="164" x2="164" y2="55" stroke="black" stroke-width="6"/>
<line x1="108" y1="3" x2="166" y2="3" stroke="black" stroke-width="6"/>
<line x1="107" y1="31" x2="166" y2="31" stroke="black" stroke-width="6"/>
<path d="M119.09 23.15C117.92 23.15 116.915 22.92 116.075 22.46C115.235 22 114.585 21.355 114.125 20.525C113.675 19.695 113.45 18.725 113.45 17.615C113.45 16.515 113.68 15.55 114.14 14.72C114.6 13.88 115.235 13.225 116.045 12.755C116.865 12.285 117.815 12.05 118.895 12.05C119.785 12.05 120.58 12.21 121.28 12.53C121.99 12.85 122.56 13.29 122.99 13.85C123.43 14.4 123.69 15.04 123.77 15.77H121.46C121.36 15.18 121.08 14.72 120.62 14.39C120.17 14.05 119.605 13.88 118.925 13.88C118.295 13.88 117.745 14.03 117.275 14.33C116.805 14.62 116.44 15.04 116.18 15.59C115.92 16.14 115.79 16.8 115.79 17.57C115.79 18.37 115.92 19.055 116.18 19.625C116.44 20.185 116.82 20.615 117.32 20.915C117.83 21.205 118.455 21.35 119.195 21.35C119.795 21.35 120.305 21.275 120.725 21.125C121.145 20.975 121.465 20.765 121.685 20.495L123.875 21.365C123.295 21.945 122.62 22.39 121.85 22.7C121.09 23 120.17 23.15 119.09 23.15ZM121.565 21.365V18.395L122.03 18.86H119.18V17.09H123.875V21.365H121.565ZM130.425 23.15C129.625 23.15 128.885 23.015 128.205 22.745C127.535 22.475 126.95 22.095 126.45 21.605C125.96 21.105 125.575 20.515 125.295 19.835C125.025 19.145 124.89 18.385 124.89 17.555C124.89 16.455 125.125 15.495 125.595 14.675C126.065 13.845 126.715 13.2 127.545 12.74C128.385 12.28 129.34 12.05 130.41 12.05C131.5 12.05 132.46 12.28 133.29 12.74C134.12 13.2 134.77 13.845 135.24 14.675C135.72 15.505 135.96 16.47 135.96 17.57C135.96 18.39 135.82 19.145 135.54 19.835C135.27 20.515 134.885 21.105 134.385 21.605C133.895 22.095 133.31 22.475 132.63 22.745C131.96 23.015 131.225 23.15 130.425 23.15ZM130.41 21.32C131.04 21.32 131.595 21.16 132.075 20.84C132.555 20.52 132.93 20.08 133.2 19.52C133.48 18.95 133.62 18.29 133.62 17.54C133.62 16.8 133.485 16.155 133.215 15.605C132.945 15.055 132.57 14.63 132.09 14.33C131.61 14.03 131.05 13.88 130.41 13.88C129.78 13.88 129.225 14.03 128.745 14.33C128.265 14.63 127.89 15.055 127.62 15.605C127.36 16.145 127.23 16.79 127.23 17.54C127.23 18.3 127.365 18.965 127.635 19.535C127.905 20.095 128.28 20.535 128.76 20.855C129.24 21.165 129.79 21.32 130.41 21.32ZM142.466 23.15C141.666 23.15 140.926 23.015 140.246 22.745C139.576 22.475 138.991 22.095 138.491 21.605C138.001 21.105 137.616 20.515 137.336 19.835C137.066 19.145 136.931 18.385 136.931 17.555C136.931 16.455 137.166 15.495 137.636 14.675C138.106 13.845 138.756 13.2 139.586 12.74C140.426 12.28 141.381 12.05 142.451 12.05C143.541 12.05 144.501 12.28 145.331 12.74C146.161 13.2 146.811 13.845 147.281 14.675C147.761 15.505 148.001 16.47 148.001 17.57C148.001 18.39 147.861 19.145 147.581 19.835C147.311 20.515 146.926 21.105 146.426 21.605C145.936 22.095 145.351 22.475 144.671 22.745C144.001 23.015 143.266 23.15 142.466 23.15ZM142.451 21.32C143.081 21.32 143.636 21.16 144.116 20.84C144.596 20.52 144.971 20.08 145.241 19.52C145.521 18.95 145.661 18.29 145.661 17.54C145.661 16.8 145.526 16.155 145.256 15.605C144.986 15.055 144.611 14.63 144.131 14.33C143.651 14.03 143.091 13.88 142.451 13.88C141.821 13.88 141.266 14.03 140.786 14.33C140.306 14.63 139.931 15.055 139.661 15.605C139.401 16.145 139.271 16.79 139.271 17.54C139.271 18.3 139.406 18.965 139.676 19.535C139.946 20.095 140.321 20.535 140.801 20.855C141.281 21.165 141.831 21.32 142.451 21.32ZM150.609 23V21.2H153.339C154.119 21.2 154.779 21.045 155.319 20.735C155.869 20.415 156.284 19.98 156.564 19.43C156.854 18.88 156.999 18.25 156.999 17.54C156.999 16.84 156.859 16.225 156.579 15.695C156.299 15.165 155.884 14.75 155.334 14.45C154.794 14.15 154.129 14 153.339 14H150.654V12.2H153.339C154.549 12.2 155.604 12.42 156.504 12.86C157.404 13.29 158.099 13.91 158.589 14.72C159.089 15.52 159.339 16.47 159.339 17.57C159.339 18.67 159.089 19.63 158.589 20.45C158.089 21.26 157.389 21.89 156.489 22.34C155.599 22.78 154.554 23 153.354 23H150.609ZM149.199 23V12.2H151.509V23H149.199Z" fill="black"/>
<path d="M121.865 52.15C121.085 52.15 120.365 52.015 119.705 51.745C119.045 51.465 118.47 51.075 117.98 50.575C117.5 50.075 117.125 49.485 116.855 48.805C116.585 48.115 116.45 47.365 116.45 46.555C116.45 45.745 116.58 45.005 116.84 44.335C117.11 43.665 117.485 43.085 117.965 42.595C118.455 42.095 119.03 41.715 119.69 41.455C120.35 41.185 121.075 41.05 121.865 41.05C122.755 41.05 123.555 41.225 124.265 41.575C124.985 41.915 125.57 42.4 126.02 43.03C126.48 43.65 126.76 44.38 126.86 45.22H124.61C124.48 44.45 124.165 43.87 123.665 43.48C123.165 43.08 122.57 42.88 121.88 42.88C121.27 42.88 120.73 43.025 120.26 43.315C119.8 43.605 119.44 44.025 119.18 44.575C118.92 45.115 118.79 45.77 118.79 46.54C118.79 47.32 118.92 47.995 119.18 48.565C119.45 49.125 119.82 49.56 120.29 49.87C120.76 50.17 121.3 50.32 121.91 50.32C122.56 50.32 123.135 50.125 123.635 49.735C124.135 49.345 124.46 48.765 124.61 47.995H126.89C126.76 48.835 126.465 49.57 126.005 50.2C125.545 50.82 124.96 51.3 124.25 51.64C123.54 51.98 122.745 52.15 121.865 52.15ZM127.039 52L130.909 41.2H132.889L129.334 52H127.039ZM134.959 52L131.419 41.2H133.489L137.359 52H134.959ZM129.079 47.815H135.139V49.615H129.079V47.815ZM142.357 52.135C140.957 52.135 139.837 51.825 138.997 51.205C138.157 50.575 137.667 49.69 137.527 48.55H139.747C139.817 49.13 140.097 49.59 140.587 49.93C141.077 50.26 141.702 50.425 142.462 50.425C143.082 50.425 143.557 50.315 143.887 50.095C144.227 49.875 144.397 49.58 144.397 49.21C144.397 48.86 144.297 48.58 144.097 48.37C143.897 48.15 143.552 47.975 143.062 47.845L141.052 47.29C140.022 47 139.267 46.605 138.787 46.105C138.317 45.595 138.082 44.96 138.082 44.2C138.082 43.55 138.247 42.99 138.577 42.52C138.917 42.04 139.392 41.675 140.002 41.425C140.612 41.165 141.327 41.035 142.147 41.035C143.407 41.035 144.412 41.335 145.162 41.935C145.912 42.525 146.337 43.31 146.437 44.29H144.217C144.117 43.76 143.872 43.37 143.482 43.12C143.102 42.87 142.612 42.745 142.012 42.745C141.492 42.745 141.077 42.845 140.767 43.045C140.457 43.245 140.302 43.515 140.302 43.855C140.302 44.115 140.387 44.355 140.557 44.575C140.727 44.785 141.082 44.965 141.622 45.115L143.632 45.67C144.692 45.96 145.452 46.36 145.912 46.87C146.382 47.37 146.617 48.005 146.617 48.775C146.617 49.855 146.242 50.685 145.492 51.265C144.742 51.845 143.697 52.135 142.357 52.135ZM147.702 52V41.2H150.012V52H147.702ZM148.782 52V50.23H155.742V52H148.782ZM148.782 47.35V45.61H155.217V47.35H148.782ZM148.782 42.97V41.2H155.562V42.97H148.782Z" fill="black"/>
</svg>
